<mxfile host="app.diagrams.net" modified="2021-02-05T07:48:44.753Z" agent="5.0 (Macintosh; Intel Mac OS X 11_2_0) AppleWebKit/537.36 (KHTML, like Gecko) Chrome/88.0.4324.96 Safari/537.36" etag="odx2c5P1kk1MhrncbFyk" version="14.2.7" type="github">
  <diagram id="ECuKKJRDwGSO8WtzTbQF" name="Page-1">
    <mxGraphModel dx="946" dy="538" grid="1" gridSize="10" guides="1" tooltips="1" connect="1" arrows="1" fold="1" page="1" pageScale="1" pageWidth="827" pageHeight="1169" math="0" shadow="0">
      <root>
        <mxCell id="0" />
        <mxCell id="1" parent="0" />
        <mxCell id="wkxqqsHXV6JuuzdKQJdM-1" value="Master" style="text;html=1;strokeColor=none;fillColor=none;align=center;verticalAlign=middle;whiteSpace=wrap;rounded=0;" vertex="1" parent="1">
          <mxGeometry x="50" y="70" width="40" height="20" as="geometry" />
        </mxCell>
        <mxCell id="wkxqqsHXV6JuuzdKQJdM-2" value="Release" style="text;html=1;strokeColor=none;fillColor=none;align=center;verticalAlign=middle;whiteSpace=wrap;rounded=0;" vertex="1" parent="1">
          <mxGeometry x="50" y="110" width="40" height="20" as="geometry" />
        </mxCell>
        <mxCell id="wkxqqsHXV6JuuzdKQJdM-3" value="Dev" style="text;html=1;strokeColor=none;fillColor=none;align=center;verticalAlign=middle;whiteSpace=wrap;rounded=0;" vertex="1" parent="1">
          <mxGeometry x="50" y="150" width="40" height="20" as="geometry" />
        </mxCell>
        <mxCell id="wkxqqsHXV6JuuzdKQJdM-4" value="Feature" style="text;html=1;strokeColor=none;fillColor=none;align=center;verticalAlign=middle;whiteSpace=wrap;rounded=0;" vertex="1" parent="1">
          <mxGeometry x="50" y="190" width="40" height="20" as="geometry" />
        </mxCell>
        <mxCell id="wkxqqsHXV6JuuzdKQJdM-8" value="" style="endArrow=none;html=1;" edge="1" parent="1" source="wkxqqsHXV6JuuzdKQJdM-48">
          <mxGeometry width="50" height="50" relative="1" as="geometry">
            <mxPoint x="120" y="79.5" as="sourcePoint" />
            <mxPoint x="742" y="80" as="targetPoint" />
          </mxGeometry>
        </mxCell>
        <mxCell id="wkxqqsHXV6JuuzdKQJdM-9" value="" style="endArrow=none;html=1;" edge="1" parent="1" source="wkxqqsHXV6JuuzdKQJdM-73">
          <mxGeometry width="50" height="50" relative="1" as="geometry">
            <mxPoint x="120" y="119.5" as="sourcePoint" />
            <mxPoint x="742" y="120" as="targetPoint" />
          </mxGeometry>
        </mxCell>
        <mxCell id="wkxqqsHXV6JuuzdKQJdM-10" value="" style="endArrow=none;html=1;" edge="1" parent="1" source="wkxqqsHXV6JuuzdKQJdM-86">
          <mxGeometry width="50" height="50" relative="1" as="geometry">
            <mxPoint x="120" y="159.5" as="sourcePoint" />
            <mxPoint x="742" y="160" as="targetPoint" />
          </mxGeometry>
        </mxCell>
        <mxCell id="wkxqqsHXV6JuuzdKQJdM-11" value="" style="endArrow=none;html=1;" edge="1" parent="1" source="wkxqqsHXV6JuuzdKQJdM-30">
          <mxGeometry width="50" height="50" relative="1" as="geometry">
            <mxPoint x="120" y="199.5" as="sourcePoint" />
            <mxPoint x="742" y="200" as="targetPoint" />
          </mxGeometry>
        </mxCell>
        <mxCell id="wkxqqsHXV6JuuzdKQJdM-12" value="" style="ellipse;whiteSpace=wrap;html=1;aspect=fixed;fillColor=#e1d5e7;strokeColor=#9673a6;" vertex="1" parent="1">
          <mxGeometry x="110" y="70" width="20" height="20" as="geometry" />
        </mxCell>
        <mxCell id="wkxqqsHXV6JuuzdKQJdM-13" value="" style="endArrow=none;html=1;" edge="1" parent="1" target="wkxqqsHXV6JuuzdKQJdM-12">
          <mxGeometry width="50" height="50" relative="1" as="geometry">
            <mxPoint x="120" y="79.5" as="sourcePoint" />
            <mxPoint x="742" y="80" as="targetPoint" />
          </mxGeometry>
        </mxCell>
        <mxCell id="wkxqqsHXV6JuuzdKQJdM-14" value="" style="endArrow=classic;html=1;" edge="1" parent="1" source="wkxqqsHXV6JuuzdKQJdM-12" target="wkxqqsHXV6JuuzdKQJdM-15">
          <mxGeometry width="50" height="50" relative="1" as="geometry">
            <mxPoint x="120" y="80" as="sourcePoint" />
            <mxPoint x="450" y="250" as="targetPoint" />
          </mxGeometry>
        </mxCell>
        <mxCell id="wkxqqsHXV6JuuzdKQJdM-15" value="" style="ellipse;whiteSpace=wrap;html=1;aspect=fixed;fillColor=#dae8fc;strokeColor=#6c8ebf;" vertex="1" parent="1">
          <mxGeometry x="140" y="150" width="20" height="20" as="geometry" />
        </mxCell>
        <mxCell id="wkxqqsHXV6JuuzdKQJdM-16" value="" style="endArrow=none;html=1;" edge="1" parent="1" target="wkxqqsHXV6JuuzdKQJdM-15">
          <mxGeometry width="50" height="50" relative="1" as="geometry">
            <mxPoint x="120" y="159.5" as="sourcePoint" />
            <mxPoint x="742" y="160" as="targetPoint" />
          </mxGeometry>
        </mxCell>
        <mxCell id="wkxqqsHXV6JuuzdKQJdM-17" value="" style="ellipse;whiteSpace=wrap;html=1;aspect=fixed;fillColor=#dae8fc;strokeColor=#6c8ebf;" vertex="1" parent="1">
          <mxGeometry x="180" y="150" width="20" height="20" as="geometry" />
        </mxCell>
        <mxCell id="wkxqqsHXV6JuuzdKQJdM-18" value="" style="endArrow=none;html=1;" edge="1" parent="1" source="wkxqqsHXV6JuuzdKQJdM-15" target="wkxqqsHXV6JuuzdKQJdM-17">
          <mxGeometry width="50" height="50" relative="1" as="geometry">
            <mxPoint x="160" y="160" as="sourcePoint" />
            <mxPoint x="742" y="160" as="targetPoint" />
          </mxGeometry>
        </mxCell>
        <mxCell id="wkxqqsHXV6JuuzdKQJdM-19" value="" style="ellipse;whiteSpace=wrap;html=1;aspect=fixed;fillColor=#dae8fc;strokeColor=#6c8ebf;" vertex="1" parent="1">
          <mxGeometry x="220" y="150" width="20" height="20" as="geometry" />
        </mxCell>
        <mxCell id="wkxqqsHXV6JuuzdKQJdM-20" value="" style="endArrow=none;html=1;" edge="1" parent="1" source="wkxqqsHXV6JuuzdKQJdM-17" target="wkxqqsHXV6JuuzdKQJdM-19">
          <mxGeometry width="50" height="50" relative="1" as="geometry">
            <mxPoint x="200" y="160" as="sourcePoint" />
            <mxPoint x="742" y="160" as="targetPoint" />
          </mxGeometry>
        </mxCell>
        <mxCell id="wkxqqsHXV6JuuzdKQJdM-21" value="" style="ellipse;whiteSpace=wrap;html=1;aspect=fixed;fillColor=#dae8fc;strokeColor=#6c8ebf;" vertex="1" parent="1">
          <mxGeometry x="260" y="150" width="20" height="20" as="geometry" />
        </mxCell>
        <mxCell id="wkxqqsHXV6JuuzdKQJdM-22" value="" style="endArrow=none;html=1;" edge="1" parent="1" source="wkxqqsHXV6JuuzdKQJdM-19" target="wkxqqsHXV6JuuzdKQJdM-21">
          <mxGeometry width="50" height="50" relative="1" as="geometry">
            <mxPoint x="240" y="160" as="sourcePoint" />
            <mxPoint x="742" y="160" as="targetPoint" />
          </mxGeometry>
        </mxCell>
        <mxCell id="wkxqqsHXV6JuuzdKQJdM-23" value="" style="endArrow=classic;html=1;" edge="1" parent="1" source="wkxqqsHXV6JuuzdKQJdM-15" target="wkxqqsHXV6JuuzdKQJdM-17">
          <mxGeometry width="50" height="50" relative="1" as="geometry">
            <mxPoint x="400" y="300" as="sourcePoint" />
            <mxPoint x="450" y="250" as="targetPoint" />
          </mxGeometry>
        </mxCell>
        <mxCell id="wkxqqsHXV6JuuzdKQJdM-26" value="" style="endArrow=classic;html=1;" edge="1" parent="1" source="wkxqqsHXV6JuuzdKQJdM-17" target="wkxqqsHXV6JuuzdKQJdM-19">
          <mxGeometry width="50" height="50" relative="1" as="geometry">
            <mxPoint x="180" y="180" as="sourcePoint" />
            <mxPoint x="200" y="180" as="targetPoint" />
          </mxGeometry>
        </mxCell>
        <mxCell id="wkxqqsHXV6JuuzdKQJdM-27" value="" style="endArrow=classic;html=1;" edge="1" parent="1" source="wkxqqsHXV6JuuzdKQJdM-19" target="wkxqqsHXV6JuuzdKQJdM-21">
          <mxGeometry width="50" height="50" relative="1" as="geometry">
            <mxPoint x="190" y="190" as="sourcePoint" />
            <mxPoint x="210" y="190" as="targetPoint" />
          </mxGeometry>
        </mxCell>
        <mxCell id="wkxqqsHXV6JuuzdKQJdM-28" value="" style="ellipse;whiteSpace=wrap;html=1;aspect=fixed;fillColor=#f8cecc;strokeColor=#b85450;" vertex="1" parent="1">
          <mxGeometry x="170" y="190" width="20" height="20" as="geometry" />
        </mxCell>
        <mxCell id="wkxqqsHXV6JuuzdKQJdM-29" value="" style="endArrow=none;html=1;" edge="1" parent="1" target="wkxqqsHXV6JuuzdKQJdM-28">
          <mxGeometry width="50" height="50" relative="1" as="geometry">
            <mxPoint x="120.00000000000023" y="199.5" as="sourcePoint" />
            <mxPoint x="742" y="200" as="targetPoint" />
          </mxGeometry>
        </mxCell>
        <mxCell id="wkxqqsHXV6JuuzdKQJdM-30" value="" style="ellipse;whiteSpace=wrap;html=1;aspect=fixed;fillColor=#f8cecc;strokeColor=#b85450;" vertex="1" parent="1">
          <mxGeometry x="280" y="190" width="20" height="20" as="geometry" />
        </mxCell>
        <mxCell id="wkxqqsHXV6JuuzdKQJdM-31" value="" style="endArrow=none;html=1;" edge="1" parent="1" source="wkxqqsHXV6JuuzdKQJdM-28" target="wkxqqsHXV6JuuzdKQJdM-30">
          <mxGeometry width="50" height="50" relative="1" as="geometry">
            <mxPoint x="190.00000000000023" y="200" as="sourcePoint" />
            <mxPoint x="742" y="200" as="targetPoint" />
          </mxGeometry>
        </mxCell>
        <mxCell id="wkxqqsHXV6JuuzdKQJdM-32" value="" style="endArrow=classic;html=1;" edge="1" parent="1" source="wkxqqsHXV6JuuzdKQJdM-28" target="wkxqqsHXV6JuuzdKQJdM-30">
          <mxGeometry width="50" height="50" relative="1" as="geometry">
            <mxPoint x="170" y="170" as="sourcePoint" />
            <mxPoint x="190" y="170" as="targetPoint" />
          </mxGeometry>
        </mxCell>
        <mxCell id="wkxqqsHXV6JuuzdKQJdM-33" value="" style="ellipse;whiteSpace=wrap;html=1;aspect=fixed;fillColor=#d5e8d4;strokeColor=#82b366;" vertex="1" parent="1">
          <mxGeometry x="320" y="110" width="20" height="20" as="geometry" />
        </mxCell>
        <mxCell id="wkxqqsHXV6JuuzdKQJdM-34" value="" style="endArrow=none;html=1;" edge="1" parent="1" target="wkxqqsHXV6JuuzdKQJdM-33">
          <mxGeometry width="50" height="50" relative="1" as="geometry">
            <mxPoint x="120" y="119.5" as="sourcePoint" />
            <mxPoint x="742" y="120" as="targetPoint" />
          </mxGeometry>
        </mxCell>
        <mxCell id="wkxqqsHXV6JuuzdKQJdM-35" value="" style="endArrow=classic;html=1;entryX=0.5;entryY=0.5;entryDx=0;entryDy=0;entryPerimeter=0;" edge="1" parent="1" source="wkxqqsHXV6JuuzdKQJdM-21" target="wkxqqsHXV6JuuzdKQJdM-33">
          <mxGeometry width="50" height="50" relative="1" as="geometry">
            <mxPoint x="220" y="330" as="sourcePoint" />
            <mxPoint x="270" y="280" as="targetPoint" />
          </mxGeometry>
        </mxCell>
        <mxCell id="wkxqqsHXV6JuuzdKQJdM-37" value="" style="endArrow=classic;html=1;" edge="1" parent="1" source="wkxqqsHXV6JuuzdKQJdM-30">
          <mxGeometry width="50" height="50" relative="1" as="geometry">
            <mxPoint x="288.3205029433957" y="164.45299803773605" as="sourcePoint" />
            <mxPoint x="330" y="120" as="targetPoint" />
          </mxGeometry>
        </mxCell>
        <mxCell id="wkxqqsHXV6JuuzdKQJdM-38" value="" style="ellipse;whiteSpace=wrap;html=1;aspect=fixed;fillColor=#dae8fc;strokeColor=#6c8ebf;" vertex="1" parent="1">
          <mxGeometry x="350" y="150" width="20" height="20" as="geometry" />
        </mxCell>
        <mxCell id="wkxqqsHXV6JuuzdKQJdM-39" value="" style="endArrow=none;html=1;" edge="1" parent="1" source="wkxqqsHXV6JuuzdKQJdM-21" target="wkxqqsHXV6JuuzdKQJdM-38">
          <mxGeometry width="50" height="50" relative="1" as="geometry">
            <mxPoint x="280" y="160" as="sourcePoint" />
            <mxPoint x="742" y="160" as="targetPoint" />
          </mxGeometry>
        </mxCell>
        <mxCell id="wkxqqsHXV6JuuzdKQJdM-40" value="" style="endArrow=classic;html=1;" edge="1" parent="1" source="wkxqqsHXV6JuuzdKQJdM-33" target="wkxqqsHXV6JuuzdKQJdM-38">
          <mxGeometry width="50" height="50" relative="1" as="geometry">
            <mxPoint x="220" y="330" as="sourcePoint" />
            <mxPoint x="270" y="280" as="targetPoint" />
          </mxGeometry>
        </mxCell>
        <mxCell id="wkxqqsHXV6JuuzdKQJdM-41" value="" style="endArrow=classic;html=1;entryX=0;entryY=0;entryDx=0;entryDy=0;" edge="1" parent="1" source="wkxqqsHXV6JuuzdKQJdM-15" target="wkxqqsHXV6JuuzdKQJdM-28">
          <mxGeometry width="50" height="50" relative="1" as="geometry">
            <mxPoint x="220" y="330" as="sourcePoint" />
            <mxPoint x="270" y="280" as="targetPoint" />
          </mxGeometry>
        </mxCell>
        <mxCell id="wkxqqsHXV6JuuzdKQJdM-42" value="" style="endArrow=classic;html=1;" edge="1" parent="1" source="wkxqqsHXV6JuuzdKQJdM-21" target="wkxqqsHXV6JuuzdKQJdM-30">
          <mxGeometry width="50" height="50" relative="1" as="geometry">
            <mxPoint x="165.66528822887153" y="178.2404192419949" as="sourcePoint" />
            <mxPoint x="182.92893218813447" y="202.92893218813447" as="targetPoint" />
          </mxGeometry>
        </mxCell>
        <mxCell id="wkxqqsHXV6JuuzdKQJdM-43" value="" style="ellipse;whiteSpace=wrap;html=1;aspect=fixed;fillColor=#e1d5e7;strokeColor=#9673a6;" vertex="1" parent="1">
          <mxGeometry x="394" y="70" width="20" height="20" as="geometry" />
        </mxCell>
        <mxCell id="wkxqqsHXV6JuuzdKQJdM-44" value="" style="endArrow=classic;html=1;" edge="1" parent="1" source="wkxqqsHXV6JuuzdKQJdM-38" target="wkxqqsHXV6JuuzdKQJdM-43">
          <mxGeometry width="50" height="50" relative="1" as="geometry">
            <mxPoint x="220" y="330" as="sourcePoint" />
            <mxPoint x="270" y="280" as="targetPoint" />
          </mxGeometry>
        </mxCell>
        <mxCell id="wkxqqsHXV6JuuzdKQJdM-45" value="" style="ellipse;whiteSpace=wrap;html=1;aspect=fixed;fillColor=#dae8fc;strokeColor=#6c8ebf;" vertex="1" parent="1">
          <mxGeometry x="430" y="150" width="20" height="20" as="geometry" />
        </mxCell>
        <mxCell id="wkxqqsHXV6JuuzdKQJdM-46" value="" style="endArrow=none;html=1;" edge="1" parent="1" source="wkxqqsHXV6JuuzdKQJdM-38" target="wkxqqsHXV6JuuzdKQJdM-45">
          <mxGeometry width="50" height="50" relative="1" as="geometry">
            <mxPoint x="370" y="160" as="sourcePoint" />
            <mxPoint x="742" y="160" as="targetPoint" />
          </mxGeometry>
        </mxCell>
        <mxCell id="wkxqqsHXV6JuuzdKQJdM-47" value="" style="endArrow=classic;html=1;" edge="1" parent="1" source="wkxqqsHXV6JuuzdKQJdM-38" target="wkxqqsHXV6JuuzdKQJdM-45">
          <mxGeometry width="50" height="50" relative="1" as="geometry">
            <mxPoint x="220" y="330" as="sourcePoint" />
            <mxPoint x="270" y="280" as="targetPoint" />
          </mxGeometry>
        </mxCell>
        <mxCell id="wkxqqsHXV6JuuzdKQJdM-48" value="" style="ellipse;whiteSpace=wrap;html=1;aspect=fixed;fillColor=#e1d5e7;strokeColor=#9673a6;" vertex="1" parent="1">
          <mxGeometry x="470" y="70" width="20" height="20" as="geometry" />
        </mxCell>
        <mxCell id="wkxqqsHXV6JuuzdKQJdM-49" value="" style="endArrow=none;html=1;" edge="1" parent="1" source="wkxqqsHXV6JuuzdKQJdM-12" target="wkxqqsHXV6JuuzdKQJdM-48">
          <mxGeometry width="50" height="50" relative="1" as="geometry">
            <mxPoint x="130" y="80" as="sourcePoint" />
            <mxPoint x="742" y="80" as="targetPoint" />
          </mxGeometry>
        </mxCell>
        <mxCell id="wkxqqsHXV6JuuzdKQJdM-50" value="" style="endArrow=classic;html=1;" edge="1" parent="1" source="wkxqqsHXV6JuuzdKQJdM-45" target="wkxqqsHXV6JuuzdKQJdM-48">
          <mxGeometry width="50" height="50" relative="1" as="geometry">
            <mxPoint x="220" y="330" as="sourcePoint" />
            <mxPoint x="270" y="280" as="targetPoint" />
          </mxGeometry>
        </mxCell>
        <mxCell id="wkxqqsHXV6JuuzdKQJdM-51" value="Feature2" style="text;html=1;strokeColor=none;fillColor=none;align=center;verticalAlign=middle;whiteSpace=wrap;rounded=0;" vertex="1" parent="1">
          <mxGeometry x="50" y="230" width="40" height="20" as="geometry" />
        </mxCell>
        <mxCell id="wkxqqsHXV6JuuzdKQJdM-52" value="" style="endArrow=none;html=1;" edge="1" parent="1" source="wkxqqsHXV6JuuzdKQJdM-68">
          <mxGeometry width="50" height="50" relative="1" as="geometry">
            <mxPoint x="120" y="240" as="sourcePoint" />
            <mxPoint x="740" y="240" as="targetPoint" />
          </mxGeometry>
        </mxCell>
        <mxCell id="wkxqqsHXV6JuuzdKQJdM-53" value="" style="ellipse;whiteSpace=wrap;html=1;aspect=fixed;fillColor=#f8cecc;strokeColor=#b85450;" vertex="1" parent="1">
          <mxGeometry x="140" y="230" width="20" height="20" as="geometry" />
        </mxCell>
        <mxCell id="wkxqqsHXV6JuuzdKQJdM-54" value="" style="endArrow=none;html=1;" edge="1" parent="1" target="wkxqqsHXV6JuuzdKQJdM-53">
          <mxGeometry width="50" height="50" relative="1" as="geometry">
            <mxPoint x="120" y="240" as="sourcePoint" />
            <mxPoint x="740" y="240" as="targetPoint" />
          </mxGeometry>
        </mxCell>
        <mxCell id="wkxqqsHXV6JuuzdKQJdM-55" value="" style="ellipse;whiteSpace=wrap;html=1;aspect=fixed;fillColor=#f8cecc;strokeColor=#b85450;" vertex="1" parent="1">
          <mxGeometry x="210" y="230" width="20" height="20" as="geometry" />
        </mxCell>
        <mxCell id="wkxqqsHXV6JuuzdKQJdM-56" value="" style="ellipse;whiteSpace=wrap;html=1;aspect=fixed;fillColor=#f8cecc;strokeColor=#b85450;" vertex="1" parent="1">
          <mxGeometry x="310" y="230" width="20" height="20" as="geometry" />
        </mxCell>
        <mxCell id="wkxqqsHXV6JuuzdKQJdM-57" value="" style="endArrow=none;html=1;" edge="1" parent="1" source="wkxqqsHXV6JuuzdKQJdM-53" target="wkxqqsHXV6JuuzdKQJdM-56">
          <mxGeometry width="50" height="50" relative="1" as="geometry">
            <mxPoint x="160" y="240" as="sourcePoint" />
            <mxPoint x="740" y="240" as="targetPoint" />
          </mxGeometry>
        </mxCell>
        <mxCell id="wkxqqsHXV6JuuzdKQJdM-58" value="" style="ellipse;whiteSpace=wrap;html=1;aspect=fixed;fillColor=#f8cecc;strokeColor=#b85450;" vertex="1" parent="1">
          <mxGeometry x="374" y="230" width="20" height="20" as="geometry" />
        </mxCell>
        <mxCell id="wkxqqsHXV6JuuzdKQJdM-59" value="" style="endArrow=none;html=1;" edge="1" parent="1" source="wkxqqsHXV6JuuzdKQJdM-56" target="wkxqqsHXV6JuuzdKQJdM-58">
          <mxGeometry width="50" height="50" relative="1" as="geometry">
            <mxPoint x="330" y="240" as="sourcePoint" />
            <mxPoint x="740" y="240" as="targetPoint" />
          </mxGeometry>
        </mxCell>
        <mxCell id="wkxqqsHXV6JuuzdKQJdM-60" value="" style="endArrow=classic;html=1;" edge="1" parent="1" source="wkxqqsHXV6JuuzdKQJdM-53">
          <mxGeometry width="50" height="50" relative="1" as="geometry">
            <mxPoint x="320" y="330" as="sourcePoint" />
            <mxPoint x="210" y="240" as="targetPoint" />
          </mxGeometry>
        </mxCell>
        <mxCell id="wkxqqsHXV6JuuzdKQJdM-62" value="" style="endArrow=classic;html=1;" edge="1" parent="1" target="wkxqqsHXV6JuuzdKQJdM-56">
          <mxGeometry width="50" height="50" relative="1" as="geometry">
            <mxPoint x="220" y="240" as="sourcePoint" />
            <mxPoint x="230" y="250" as="targetPoint" />
          </mxGeometry>
        </mxCell>
        <mxCell id="wkxqqsHXV6JuuzdKQJdM-63" value="" style="endArrow=classic;html=1;entryX=0;entryY=0.5;entryDx=0;entryDy=0;" edge="1" parent="1" source="wkxqqsHXV6JuuzdKQJdM-56" target="wkxqqsHXV6JuuzdKQJdM-58">
          <mxGeometry width="50" height="50" relative="1" as="geometry">
            <mxPoint x="180" y="260" as="sourcePoint" />
            <mxPoint x="240" y="260" as="targetPoint" />
          </mxGeometry>
        </mxCell>
        <mxCell id="wkxqqsHXV6JuuzdKQJdM-65" value="" style="ellipse;whiteSpace=wrap;html=1;aspect=fixed;fillColor=#d5e8d4;strokeColor=#82b366;" vertex="1" parent="1">
          <mxGeometry x="510" y="110" width="20" height="20" as="geometry" />
        </mxCell>
        <mxCell id="wkxqqsHXV6JuuzdKQJdM-66" value="" style="endArrow=none;html=1;" edge="1" parent="1" source="wkxqqsHXV6JuuzdKQJdM-33" target="wkxqqsHXV6JuuzdKQJdM-65">
          <mxGeometry width="50" height="50" relative="1" as="geometry">
            <mxPoint x="340" y="120" as="sourcePoint" />
            <mxPoint x="742" y="120" as="targetPoint" />
          </mxGeometry>
        </mxCell>
        <mxCell id="wkxqqsHXV6JuuzdKQJdM-68" value="" style="ellipse;whiteSpace=wrap;html=1;aspect=fixed;fillColor=#f8cecc;strokeColor=#b85450;" vertex="1" parent="1">
          <mxGeometry x="470" y="230" width="20" height="20" as="geometry" />
        </mxCell>
        <mxCell id="wkxqqsHXV6JuuzdKQJdM-69" value="" style="endArrow=none;html=1;" edge="1" parent="1" source="wkxqqsHXV6JuuzdKQJdM-58" target="wkxqqsHXV6JuuzdKQJdM-68">
          <mxGeometry width="50" height="50" relative="1" as="geometry">
            <mxPoint x="394" y="240" as="sourcePoint" />
            <mxPoint x="740" y="240" as="targetPoint" />
          </mxGeometry>
        </mxCell>
        <mxCell id="wkxqqsHXV6JuuzdKQJdM-70" value="" style="endArrow=classic;html=1;exitX=1;exitY=0.5;exitDx=0;exitDy=0;" edge="1" parent="1" source="wkxqqsHXV6JuuzdKQJdM-58" target="wkxqqsHXV6JuuzdKQJdM-68">
          <mxGeometry width="50" height="50" relative="1" as="geometry">
            <mxPoint x="340" y="250" as="sourcePoint" />
            <mxPoint x="384" y="250" as="targetPoint" />
          </mxGeometry>
        </mxCell>
        <mxCell id="wkxqqsHXV6JuuzdKQJdM-72" value="" style="endArrow=classic;html=1;entryX=0;entryY=0.5;entryDx=0;entryDy=0;" edge="1" parent="1" source="wkxqqsHXV6JuuzdKQJdM-45" target="wkxqqsHXV6JuuzdKQJdM-65">
          <mxGeometry width="50" height="50" relative="1" as="geometry">
            <mxPoint x="320" y="330" as="sourcePoint" />
            <mxPoint x="370" y="280" as="targetPoint" />
          </mxGeometry>
        </mxCell>
        <mxCell id="wkxqqsHXV6JuuzdKQJdM-73" value="" style="ellipse;whiteSpace=wrap;html=1;aspect=fixed;fillColor=#d5e8d4;strokeColor=#82b366;" vertex="1" parent="1">
          <mxGeometry x="570" y="110" width="20" height="20" as="geometry" />
        </mxCell>
        <mxCell id="wkxqqsHXV6JuuzdKQJdM-74" value="" style="endArrow=none;html=1;" edge="1" parent="1" source="wkxqqsHXV6JuuzdKQJdM-65" target="wkxqqsHXV6JuuzdKQJdM-73">
          <mxGeometry width="50" height="50" relative="1" as="geometry">
            <mxPoint x="530" y="120" as="sourcePoint" />
            <mxPoint x="742" y="120" as="targetPoint" />
          </mxGeometry>
        </mxCell>
        <mxCell id="wkxqqsHXV6JuuzdKQJdM-76" value="" style="endArrow=classic;html=1;" edge="1" parent="1" source="wkxqqsHXV6JuuzdKQJdM-65" target="wkxqqsHXV6JuuzdKQJdM-73">
          <mxGeometry width="50" height="50" relative="1" as="geometry">
            <mxPoint x="320" y="330" as="sourcePoint" />
            <mxPoint x="370" y="280" as="targetPoint" />
          </mxGeometry>
        </mxCell>
        <mxCell id="wkxqqsHXV6JuuzdKQJdM-79" value="" style="endArrow=classic;html=1;exitX=0.5;exitY=0.5;exitDx=0;exitDy=0;exitPerimeter=0;" edge="1" parent="1" source="wkxqqsHXV6JuuzdKQJdM-68" target="wkxqqsHXV6JuuzdKQJdM-65">
          <mxGeometry width="50" height="50" relative="1" as="geometry">
            <mxPoint x="320" y="330" as="sourcePoint" />
            <mxPoint x="370" y="280" as="targetPoint" />
          </mxGeometry>
        </mxCell>
        <mxCell id="wkxqqsHXV6JuuzdKQJdM-80" value="" style="ellipse;whiteSpace=wrap;html=1;aspect=fixed;fillColor=#e1d5e7;strokeColor=#9673a6;" vertex="1" parent="1">
          <mxGeometry x="610" y="70" width="20" height="20" as="geometry" />
        </mxCell>
        <mxCell id="wkxqqsHXV6JuuzdKQJdM-81" value="" style="endArrow=classic;html=1;" edge="1" parent="1" source="wkxqqsHXV6JuuzdKQJdM-73" target="wkxqqsHXV6JuuzdKQJdM-80">
          <mxGeometry width="50" height="50" relative="1" as="geometry">
            <mxPoint x="320" y="330" as="sourcePoint" />
            <mxPoint x="370" y="280" as="targetPoint" />
          </mxGeometry>
        </mxCell>
        <mxCell id="wkxqqsHXV6JuuzdKQJdM-84" value="" style="ellipse;whiteSpace=wrap;html=1;aspect=fixed;fillColor=#dae8fc;strokeColor=#6c8ebf;" vertex="1" parent="1">
          <mxGeometry x="540" y="150" width="20" height="20" as="geometry" />
        </mxCell>
        <mxCell id="wkxqqsHXV6JuuzdKQJdM-85" value="" style="endArrow=none;html=1;" edge="1" parent="1" source="wkxqqsHXV6JuuzdKQJdM-45" target="wkxqqsHXV6JuuzdKQJdM-84">
          <mxGeometry width="50" height="50" relative="1" as="geometry">
            <mxPoint x="450" y="160" as="sourcePoint" />
            <mxPoint x="742" y="160" as="targetPoint" />
          </mxGeometry>
        </mxCell>
        <mxCell id="wkxqqsHXV6JuuzdKQJdM-86" value="" style="ellipse;whiteSpace=wrap;html=1;aspect=fixed;fillColor=#dae8fc;strokeColor=#6c8ebf;" vertex="1" parent="1">
          <mxGeometry x="640" y="150" width="20" height="20" as="geometry" />
        </mxCell>
        <mxCell id="wkxqqsHXV6JuuzdKQJdM-87" value="" style="endArrow=none;html=1;" edge="1" parent="1" source="wkxqqsHXV6JuuzdKQJdM-84" target="wkxqqsHXV6JuuzdKQJdM-86">
          <mxGeometry width="50" height="50" relative="1" as="geometry">
            <mxPoint x="560" y="160" as="sourcePoint" />
            <mxPoint x="742" y="160" as="targetPoint" />
          </mxGeometry>
        </mxCell>
        <mxCell id="wkxqqsHXV6JuuzdKQJdM-88" value="" style="endArrow=classic;html=1;" edge="1" parent="1" source="wkxqqsHXV6JuuzdKQJdM-45" target="wkxqqsHXV6JuuzdKQJdM-84">
          <mxGeometry width="50" height="50" relative="1" as="geometry">
            <mxPoint x="320" y="330" as="sourcePoint" />
            <mxPoint x="370" y="280" as="targetPoint" />
          </mxGeometry>
        </mxCell>
        <mxCell id="wkxqqsHXV6JuuzdKQJdM-90" value="" style="endArrow=classic;html=1;" edge="1" parent="1" source="wkxqqsHXV6JuuzdKQJdM-84" target="wkxqqsHXV6JuuzdKQJdM-86">
          <mxGeometry width="50" height="50" relative="1" as="geometry">
            <mxPoint x="320" y="330" as="sourcePoint" />
            <mxPoint x="370" y="280" as="targetPoint" />
          </mxGeometry>
        </mxCell>
      </root>
    </mxGraphModel>
  </diagram>
</mxfile>
